{"title":"The Block - S12E20 - Living And Dining Rooms Revealed","uid":15896604,"size":1421217078,"categoryP":"video","categoryS":"tv_shows","magnet":"?xt=urn:btih:f587e639deec412b96706419dccfe9c84820fa91&amp;dn=The+Block+-+S12E20+-+Living+And+Dining+Rooms+Revealed&amp;tr=udp%3A%2F%2Ftracker.leechers-paradise.org%3A6969&amp;tr=udp%3A%2F%2Fzer0day.ch%3A1337&amp;tr=udp%3A%2F%2Fopen.demonii.com%3A1337&amp;tr=udp%3A%2F%2Ftracker.coppersurfer.tk%3A6969&amp;tr=udp%3A%2F%2Fexodus.desync.com%3A6969","seeders":24,"leechers":1,"uploader":"Bullrout","files":1,"time":1474812673,"description":"The Block - S12E20 - Living And Dining Rooms Revealed\r\n\r\nIt's the explosive end to a massive week of renovating. Julia and Sasha struggle to get their room finished and Julia isn't happy with the result. Ben and Andy, the self proclaimed style king, argue about their dining table.\r\n\r\n\r\nComplete name                            : The Block - S12E20 - Living And Dining Rooms Revealed.mkv\r\nFormat                                   : Matroska\r\nFormat version                           : Version 4 / Version 2\r\nFile size                                : 1.32 GiB\r\nDuration                                 : 57 min 31 s\r\nOverall bit rate mode                    : Variable\r\nOverall bit rate                         : 3 294 kb/s\r\nEncoded date                             : UTC 2016-09-25 12:01:13\r\nWriting application                      : mkvmerge v9.4.2 ('So High') 64bit\r\nWriting library                          : libebml v1.3.4 + libmatroska v1.4.5\r\n\r\nVideo\r\nID                                       : 2\r\nFormat                                   : AVC\r\nFormat/Info                              : Advanced Video Codec\r\nFormat profile                           :   \r\nFormat settings, CABAC                   : Yes\r\nFormat settings, ReFrames                : 3 frames\r\nCodec ID                                 : V_MPEG4/ISO/AVC\r\nDuration                                 : 57 min 31 s\r\nBit rate mode                            : Variable\r\nBit rate                                 : 2 908 kb/s\r\nMaximum bit rate                         : 3 000 kb/s\r\nWidth                                    : 1 280 pixels\r\nHeight                                   : 720 pixels\r\nDisplay aspect ratio                     : 16:9\r\nFrame rate mode                          : Constant\r\nFrame rate                               : 25.000 FPS\r\nStandard                                 : PAL\r\nColor space                              : YUV\r\nChroma subsampling                       : 4:2:0\r\nBit depth                                : 8 bits\r\nScan type                                : Progressive\r\nBits/(Pixel*Frame)                       : 0.126\r\nStream size                              : 1.17 GiB (88%)\r\nWriting library                          : x264 core 112\r\nDefault                                  : Yes\r\nForced                                   : No\r\nColor range                              : Limited\r\nColor primaries                          : BT.709\r\nTransfer characteristics                 : BT.709\r\nMatrix coefficients                      : BT.709\r\n\r\nAudio\r\nID                                       : 1\r\nFormat                                   : AC-3\r\nFormat/Info                              : Audio Coding 3\r\nMode extension                           : CM (complete main)\r\nFormat settings, Endianness              : Big\r\nCodec ID                                 : A_AC3\r\nDuration                                 : 57 min 31 s\r\nBit rate mode                            : Constant\r\nBit rate                                 : 384 kb/s\r\nChannel(s)                               : 6 channels\r\nChannel positions                        : Front: L C R, Side: L R, LFE\r\nSampling rate                            : 48.0 kHz\r\nFrame rate                               : 31.250 FPS (1536 spf)\r\nCompression mode                         : Lossy\r\nStream size                              : 158 MiB (12%)\r\nDefault                                  : Yes\r\nForced                                   : No","torrent":{"xt":"urn:btih:f587e639deec412b96706419dccfe9c84820fa91","amp;dn":"The+Block+-+S12E20+-+Living+And+Dining+Rooms+Revealed","amp;tr":["udp%3A%2F%2Ftracker.leechers-paradise.org%3A6969","udp%3A%2F%2Fzer0day.ch%3A1337","udp%3A%2F%2Fopen.demonii.com%3A1337","udp%3A%2F%2Ftracker.coppersurfer.tk%3A6969","udp%3A%2F%2Fexodus.desync.com%3A6969"],"infoHash":"f587e639deec412b96706419dccfe9c84820fa91","infoHashBuffer":{"type":"Buffer","data":[245,135,230,57,222,236,65,43,150,112,100,25,220,207,233,200,72,32,250,145]},"announce":[],"urlList":[]}}